<svg width="256" height="256" viewBox="0 0 256 256" fill="none" xmlns="http://www.w3.org/2000/svg">
<path fill-rule="evenodd" clip-rule="evenodd" d="M71.1589 179.633C78.2417 178.676 100.755 175.713 104.998 176.137C110.047 176.642 113.203 177.4 113.203 181.186C113.203 182.624 112.747 183.881 112.183 185.439C111.261 187.983 110.047 191.333 110.047 197.596C110.047 207.693 117.456 211.866 125.825 212.111C133.906 212.348 139.968 208.669 141.603 200.751C142.186 197.927 141.13 195.3 139.975 192.429C139.065 190.168 138.094 187.754 137.816 184.973C137.314 179.949 141.615 179.084 143.496 179.293C148.239 179.82 169.26 183.427 176.071 184.603C158.93 198.86 141.58 216.575 127.718 244.298C111.566 215.977 90.8502 196.344 71.1589 179.633Z" fill="#9BC314"/>
<path fill-rule="evenodd" clip-rule="evenodd" d="M70.0858 178.724C66.5198 175.711 62.9909 172.79 59.5325 169.928C28.0626 143.883 2.42861 122.668 7.78952 80.3297C15.8174 76.9038 24.7029 77.7049 24.2145 82.1002C23.9724 84.2788 23.2662 85.8075 22.6298 87.1848C21.607 89.3985 20.7649 91.2213 22.3211 94.7228C24.7528 100.194 31.1568 102.296 38.7303 97.8784C42.8713 95.4629 42.4839 92.2925 42.0043 88.3674C41.6067 85.1139 41.1458 81.3418 43.1481 77.0513C46.6665 69.512 60.5921 71.1792 71.5362 72.4894C74.3343 72.8243 76.9375 73.136 79.122 73.2645L79.2807 73.2739C79.1781 73.6804 79.1222 73.8958 79.1222 73.8958C79.1222 73.8958 74.7043 88.4116 70.9175 103.559C70.137 106.681 69.58 113.489 75.9666 114.288C78.4146 114.594 80.1085 114.18 81.6416 113.806C83.2705 113.409 84.718 113.056 86.6956 113.656C92.3994 115.389 93.9438 119.694 93.638 125.648C93.322 131.801 90.2047 137.02 84.1712 138.27C81.9529 138.73 80.2414 137.459 78.5704 136.219C76.792 134.899 75.0596 133.613 72.811 134.483C69.7185 135.68 67.6179 140.637 67.7619 143.95C68.2673 155.573 69.5818 172.456 70.0858 178.724Z" fill="#28BCC5"/>
<path fill-rule="evenodd" clip-rule="evenodd" d="M7.80515 80.207C14.7249 26.1087 82.462 -17.9576 127.276 37.372C124.924 37.7942 113.78 39.6785 108.154 38.5532C105.531 38.0285 103.709 36.4888 101.938 34.9923C99.9036 33.2731 97.9369 31.6109 94.9001 31.6109C90.7029 31.6109 86.6796 35.6635 86.0644 39.8154C83.8237 54.94 80.0916 70.0646 79.2808 73.2739L79.122 73.2645C76.9385 73.136 74.3327 72.8242 71.5362 72.4894C60.5921 71.1792 46.6665 69.512 43.1482 77.0513C41.1459 81.3418 41.6068 85.1139 42.0043 88.3674C42.4839 92.2925 42.8713 95.4629 38.7303 97.8784C31.1569 102.296 24.7529 100.194 22.3212 94.7228C20.7649 91.2213 21.6071 89.3985 22.6298 87.1848C23.2662 85.8075 23.9725 84.2788 24.2145 82.1002C24.7029 77.7049 15.8175 76.9038 7.78955 80.3297L7.80515 80.207Z" fill="#D9D9D9"/>
<path fill-rule="evenodd" clip-rule="evenodd" d="M7.80515 80.207C14.7249 26.1087 82.462 -17.9576 127.276 37.372C124.924 37.7942 113.78 39.6785 108.154 38.5532C105.531 38.0285 103.709 36.4888 101.938 34.9923C99.9036 33.2731 97.9369 31.6109 94.9001 31.6109C90.7029 31.6109 86.6796 35.6635 86.0644 39.8154C83.8237 54.94 80.0916 70.0646 79.2808 73.2739L79.122 73.2645C76.9385 73.136 74.3327 72.8242 71.5362 72.4894C60.5921 71.1792 46.6665 69.512 43.1482 77.0513C41.1459 81.3418 41.6068 85.1139 42.0043 88.3674C42.4839 92.2925 42.8713 95.4629 38.7303 97.8784C31.1569 102.296 24.7529 100.194 22.3212 94.7228C20.7649 91.2213 21.6071 89.3985 22.6298 87.1848C23.2662 85.8075 23.9725 84.2788 24.2145 82.1002C24.7029 77.7049 15.8175 76.9038 7.78955 80.3297L7.80515 80.207Z" fill="#FD5423"/>
<path fill-rule="evenodd" clip-rule="evenodd" d="M108.154 38.5532C113.78 39.6785 124.924 37.7942 127.276 37.372C127.368 37.4853 127.459 37.599 127.551 37.713L127.718 37.9219C141.934 19.0498 163.097 12.3609 183.668 14.6762C184.586 18.0965 184.723 21.7593 183.257 24.6686C181.028 29.0919 176.729 28.1274 173.588 27.4226C173.425 27.3861 173.265 27.3502 173.108 27.3158C172.909 27.2719 172.715 27.2305 172.528 27.193C168.565 26.4004 165.375 29.0864 167.479 35.3976C168.367 38.0609 169.256 40.6225 170.138 43.1621C173.017 51.4555 175.815 59.514 178.208 70.1093C178.251 70.301 178.294 70.4934 178.337 70.6868C178.089 70.7045 177.836 70.7222 177.577 70.7401C172.217 71.11 166.427 71.9179 161.136 72.6563C153.505 73.721 146.909 74.6413 144.128 73.896C137.837 72.2105 139.14 69.4641 141.167 65.1905C142.598 62.1753 144.389 58.3996 144.128 53.7001C143.496 42.3399 123.932 44.8646 118.252 49.2823C113.05 53.3277 114.337 58.5429 116.006 65.3025C116.335 66.6335 116.678 68.0242 116.989 69.4778C117.796 73.2424 116.358 76.4202 109.416 75.7891L106.915 75.5615C96.1725 74.5835 86.5023 73.7032 79.2808 73.274C80.0916 70.0646 83.8236 54.94 86.0644 39.8155C86.6796 35.6636 90.7029 31.6109 94.9001 31.6109C97.9369 31.6109 99.9036 33.2731 101.938 34.9924C103.709 36.4888 105.53 38.0286 108.154 38.5532Z" fill="#29BEC5"/>
<path fill-rule="evenodd" clip-rule="evenodd" d="M183.668 14.6759C207.607 17.3702 230.744 32.2579 241.196 54.3299C220.562 60.4279 225.498 68.8144 229.479 75.5763C231.27 78.6196 232.868 81.3338 231.853 83.3623C226.804 93.4605 217.338 95.3539 211.026 89.6738C208.371 87.2841 208.844 83.3305 209.295 79.5519C209.917 74.3489 210.499 69.4776 202.822 69.4776C193.096 69.4776 189.353 69.7915 184.157 70.227C184.152 70.2275 184.147 70.228 184.141 70.2284C184.135 70.229 184.129 70.2296 184.122 70.2301C183.917 70.2474 183.709 70.2646 183.498 70.2822C183.493 70.2827 183.487 70.2833 183.481 70.2837C181.966 70.4103 180.309 70.5461 178.337 70.6865C178.294 70.4931 178.251 70.3007 178.208 70.109C175.815 59.5137 173.017 51.4552 170.138 43.1619C169.256 40.6223 168.367 38.0607 167.479 35.3974C165.375 29.0861 168.565 26.4002 172.528 27.1928C172.715 27.2302 172.909 27.2717 173.108 27.3156C173.265 27.3499 173.425 27.3858 173.588 27.4224C176.728 28.1271 181.028 29.0917 183.257 24.6683C184.723 21.7591 184.585 18.0962 183.668 14.6759Z" fill="#9AC215"/>
<path fill-rule="evenodd" clip-rule="evenodd" d="M229.479 75.5764C225.498 68.8145 220.562 60.4279 241.196 54.33C244.89 62.1318 247 70.8311 247 80.2068C247 129.992 222.755 148.52 193.91 170.563L193.892 170.576L193.87 170.593L193.858 170.602L193.821 170.63C188.192 174.933 182.388 179.37 176.555 184.201C177.421 176.188 179.719 154.482 180.733 140.795C181.02 136.908 179.47 132.59 175.684 131.959C173.107 131.53 170.983 132.75 168.886 133.955C166.661 135.233 164.467 136.494 161.799 135.746C155.283 133.918 152.576 127.987 152.963 121.23C153.344 114.582 157.033 107.345 163.692 107.345C167.276 107.345 169.166 108.716 170.856 109.943C172.441 111.092 173.85 112.115 176.315 111.763C180.733 111.132 183.257 107.756 183.257 103.558C183.257 99.8281 181.181 83.4914 178.337 70.6866C180.308 70.546 181.967 70.4103 183.481 70.2838L183.498 70.2823L184.122 70.2302L184.141 70.2285L184.157 70.2271C189.353 69.7915 193.096 69.4776 202.822 69.4776C210.499 69.4776 209.917 74.3489 209.295 79.552C208.844 83.3306 208.371 87.2842 211.026 89.6738C217.338 95.3539 226.804 93.4605 231.853 83.3623C232.868 81.3338 231.27 78.6196 229.479 75.5764Z" fill="#ED385E"/>
</svg>
