<svg width="128" height="128" viewBox="0 0 128 128" fill="none" xmlns="http://www.w3.org/2000/svg">
<path d="M38.0558 101.957C57.0557 91.4566 21.3056 88.2424 15.0558 86.4567C8.0558 84.4566 11.6333 73.6982 14.5557 63.9566C20.5555 43.9566 32.0015 69.8539 40.5557 54.4566C53.0557 31.9566 22.0557 47.4566 31.0557 31.9566C35.9167 23.5848 40.6484 10.7981 48.0558 14.9567C76.5557 30.9566 74.3376 20.9768 74.5558 15.9567C75.0557 4.4566 83.0008 3.42919 89.0558 6.45667C103.056 13.4565 93.8779 18.7906 91.5558 21.4567C78.0557 36.9565 104.808 30.3144 114.056 32.9565C120.056 34.6707 116.562 50.9565 113.556 55.9565C108.445 64.4565 90.7448 44.4565 86.0557 61.9565C79.5558 85.9565 110.556 69.9565 103.556 83.9565C97.374 95.8447 89.2391 114.974 79.5558 108.457C53.5557 90.9565 55.3459 105.046 57.5558 109.957C62.0557 119.957 49.7681 125.683 42.0558 123.457C33.8504 121.088 27.2918 107.905 38.0558 101.957Z" fill="white"/>
</svg>
