<svg width="740" height="677" viewBox="0 0 740 677" fill="none" xmlns="http://www.w3.org/2000/svg">
<g clip-path="url(#clip0_43_9)">
<path d="M558.676 303.082L593.489 272.336C593.489 272.336 586.741 269.698 582.623 268.173C575.747 265.628 571.689 264.706 564.987 261.732C559.899 259.474 551.479 255.72 551.479 255.72L550.785 256.711L559.075 265.959L558.711 267.181C558.711 267.181 556.008 270.573 554.781 272.795C552.796 276.389 552.817 278.717 550.321 281.977C547.898 285.141 542.328 289.176 542.328 289.176L544.805 293.371L558.676 303.082Z" fill="#EC8B56"/>
<path d="M549.1 266.85C552.719 267.062 558.48 267.512 558.48 267.512C558.48 267.512 556.353 271.42 554.979 273.919C553.529 276.554 552.958 278.183 551.246 280.656C549.445 283.258 548.214 284.576 545.961 286.799C544.928 287.818 543.22 289.308 543.22 289.308C543.22 289.308 539.972 283.568 538.068 279.796C536.766 277.216 536.06 275.756 534.865 273.125C533.872 270.936 532.422 267.477 532.422 267.477L532.191 262.886C532.191 262.886 533.142 263.236 533.743 263.48C535.517 264.202 536.602 264.604 538.4 265.264C540.129 265.9 540.917 266.468 542.726 266.817C545.219 267.297 546.566 266.702 549.1 266.85Z" fill="#DE7545"/>
<path d="M531.657 335.348C572.932 331.861 596.344 337.263 637.542 341.564C641.116 341.937 646.691 342.556 646.691 342.556L645.634 339.847C645.634 339.847 644.067 335.189 642.332 332.614C640.451 329.823 638.836 328.674 636.321 326.438C634.318 324.656 633.13 323.72 630.938 322.177C627.71 319.903 625.797 318.728 622.219 317.057C617.928 315.053 615.228 314.365 610.787 313.234L610.231 313.093C603.953 311.492 600.23 311.602 593.849 310.482L593.031 310.339C585.897 309.087 581.649 308.342 574.364 306.683C568.291 305.3 558.907 302.752 558.907 302.752L553.293 298.821L545.036 293.041C545.036 293.041 542.875 288.837 541.503 286.138C539.396 281.993 537.996 279.771 536.153 275.502C534.404 271.453 532.612 269.297 532.257 264.9C532.193 264.116 532.191 262.886 532.191 262.886C532.191 262.886 534.47 263.929 535.956 264.537C538.218 265.463 539.451 266.143 541.834 266.685C544.31 267.247 545.774 267.114 548.308 267.279C550.356 267.413 551.507 267.467 553.559 267.511C555.48 267.552 558.48 267.511 558.48 267.511L559.405 266.19C559.405 266.19 558.906 265.21 558.546 264.605C556.419 261.02 551.116 256.942 551.116 256.942L551.809 255.951C551.809 255.951 557.915 259.289 561.981 261.104C565.678 262.754 567.845 263.456 571.625 264.903C580.007 268.113 584.85 269.524 593.258 272.666C601.305 275.674 605.88 277.219 613.767 280.627C618.614 282.722 621.133 284.356 626.053 286.276C630.183 287.888 632.543 288.707 636.819 289.876C641.785 291.234 644.625 291.877 649.733 292.519C653.376 292.978 655.456 293.52 659.113 293.181C662.445 292.871 664.224 292.076 667.436 291.134C669.702 290.469 671.09 290.347 673.182 289.251C674.815 288.397 676.042 288.088 677.047 286.543C677.485 285.871 677.873 284.661 677.873 284.661C677.873 284.661 670.227 281.459 665.356 279.343C655.953 275.258 650.624 273.074 641.445 268.508C634.623 265.115 630.825 263.011 624.275 259.382L623.875 259.16C615.72 254.642 611.405 251.657 603.234 247.17C590.821 240.353 577.309 234.265 570.835 230.885L554.256 222.231L532.459 206.97C532.459 206.97 527.717 204.241 524.5 202.875C522.25 201.919 521.021 201.19 518.621 200.727C516.818 200.38 515.755 200.184 513.931 200.397C512.148 200.605 511.166 200.993 509.538 201.751C505.479 203.641 504.619 206.716 501.413 209.842C495.886 215.231 492.82 218.297 487.012 223.382C479.478 229.978 475.074 233.494 466.963 239.366L466.477 239.718C458.536 245.467 453.901 248.824 445.164 253.632C438.184 257.473 434.145 259.457 426.735 262.383C418.592 265.598 413.88 267.159 405.332 269.053C396.957 270.909 383.567 272.024 383.567 272.024L119.658 249.691L-5.84126e-06 387.478L328.604 352.64L388.582 346.402C388.582 346.402 416.184 342.514 433.962 342.739C444.977 342.878 451.089 345.018 462.101 344.722C473.132 344.427 479.2 342.662 490.141 341.224C506.376 339.088 515.341 336.726 531.657 335.348Z" fill="#FEAD78"/>
</g>
<path d="M642.019 300.614C652.024 319.879 656.161 284.224 658.108 278.022C660.288 271.076 670.95 274.931 680.613 278.104C700.452 284.618 674.267 295.391 689.438 304.34C711.608 317.418 696.914 286.027 712.176 295.425C720.42 300.501 733.08 305.561 728.731 312.858C712.001 340.936 722.034 338.976 727.047 339.324C738.53 340.121 739.352 348.09 736.169 354.064C728.81 367.879 723.715 358.566 721.11 356.176C705.964 342.28 711.913 369.195 709.032 378.371C707.164 384.325 690.974 380.412 686.053 377.277C677.688 371.949 698.139 354.771 680.765 349.632C656.941 342.514 672.135 373.917 658.321 366.557C646.596 360.071 627.683 351.444 634.449 341.933C652.615 316.393 638.484 317.819 633.518 319.901C623.405 324.141 617.998 311.71 620.423 304.058C623.002 295.916 636.35 289.7 642.019 300.614Z" fill="#FA4F23"/>
<defs>
<clipPath id="clip0_43_9">
<rect width="504" height="473" fill="white" transform="translate(271.275) rotate(34.996)"/>
</clipPath>
</defs>
</svg>
