<svg width="728" height="630" viewBox="0 0 728 630" fill="none" xmlns="http://www.w3.org/2000/svg">
<path d="M200.409 232.847L173.167 195.228C173.167 195.228 180.328 194.131 184.68 193.544C191.947 192.565 196.108 192.554 203.299 191.118C208.757 190.028 217.795 188.208 217.795 188.208L218.255 189.326L208.143 196.536L208.23 197.808C208.23 197.808 210.125 201.71 210.837 204.147C211.987 208.088 211.457 210.355 213.179 214.081C214.851 217.7 219.403 222.855 219.403 222.855L216.068 226.406L200.409 232.847Z" fill="#EFB393"/>
<path d="M217.68 199.589C214.103 199.003 208.383 198.182 208.383 198.182C208.383 198.182 209.603 202.461 210.398 205.2C211.236 208.088 211.436 209.803 212.565 212.59C213.754 215.523 214.666 217.079 216.378 219.741C217.163 220.961 218.504 222.79 218.504 222.79C218.504 222.79 222.929 217.899 225.612 214.635C227.447 212.402 228.456 211.132 230.197 208.826C231.646 206.908 233.818 203.85 233.818 203.85L235.048 199.421C235.048 199.421 234.043 199.554 233.403 199.661C231.514 199.977 230.367 200.132 228.469 200.383C226.642 200.624 225.749 201.007 223.907 200.951C221.37 200.874 220.185 199.999 217.68 199.589Z" fill="#DA9075"/>
<path d="M219.712 270.243C180.2 257.809 156.173 257.957 115.033 253.139C111.463 252.721 105.889 252.105 105.889 252.105L107.512 249.693C107.512 249.693 110.061 245.491 112.318 243.358C114.764 241.046 116.591 240.278 119.534 238.646C121.879 237.346 123.242 236.693 125.719 235.666C129.367 234.155 131.49 233.426 135.347 232.579C139.973 231.562 142.758 231.482 147.339 231.35L147.912 231.334C154.388 231.146 157.997 232.068 164.468 232.371L165.298 232.41C172.532 232.75 176.841 232.953 184.313 232.928C190.541 232.907 200.255 232.474 200.255 232.474L206.594 229.867L215.915 226.034C215.915 226.034 218.943 222.405 220.873 220.071C223.836 216.488 225.688 214.626 228.42 210.864C231.013 207.296 233.234 205.585 234.542 201.372C234.776 200.62 235.047 199.421 235.047 199.421C235.047 199.421 232.595 199.94 231.012 200.208C228.602 200.616 227.25 201.01 224.806 201.017C222.268 201.024 220.868 200.574 218.36 200.181C216.332 199.864 215.197 199.664 213.185 199.258C211.301 198.878 208.383 198.181 208.383 198.181L207.77 196.69C207.77 196.69 208.471 195.843 208.954 195.331C211.815 192.299 217.882 189.48 217.882 189.48L217.422 188.361C217.422 188.361 210.733 190.282 206.368 191.163C202.401 191.965 200.132 192.175 196.127 192.76C187.246 194.058 182.212 194.375 173.32 195.601C164.809 196.775 160.008 197.282 151.566 198.881C146.378 199.864 143.562 200.908 138.342 201.705C133.959 202.374 131.477 202.657 127.048 202.862C121.906 203.1 118.994 203.106 113.869 202.615C110.214 202.265 108.066 202.34 104.572 201.208C101.388 200.177 99.8269 199.011 96.899 197.389C94.8333 196.245 93.5053 195.822 91.7033 194.295C90.2972 193.104 89.1678 192.534 88.5252 190.807C88.2452 190.055 88.1313 188.79 88.1313 188.79C88.1313 188.79 96.2923 187.338 101.509 186.339C111.577 184.411 117.255 183.446 127.211 180.999C134.609 179.181 138.776 177.959 145.962 175.851L146.401 175.723C155.346 173.099 160.21 171.131 169.165 168.54C182.768 164.604 197.285 161.62 204.342 159.739L222.413 154.922L247.021 144.802C247.021 144.802 252.245 143.176 255.684 142.547C258.088 142.107 259.447 141.664 261.89 141.738C263.725 141.794 264.806 141.835 266.539 142.442C268.233 143.035 269.107 143.628 270.529 144.724C274.076 147.457 274.242 150.645 276.686 154.397C280.9 160.865 283.221 164.528 287.775 170.76C293.683 178.845 297.211 183.239 303.841 190.744L304.238 191.194C310.728 198.542 314.517 202.831 321.99 209.434C327.96 214.71 331.467 217.529 338.058 222.006C345.3 226.925 349.556 229.479 357.482 233.198C365.248 236.841 378.069 240.859 378.069 240.859L640.469 276.817L727.077 437.448L414.06 331.548L356.901 312.337C356.901 312.337 330.819 302.503 313.422 298.833C302.643 296.559 296.212 297.309 285.531 294.611C274.831 291.909 269.297 288.859 258.936 285.061C243.562 279.425 235.331 275.158 219.712 270.243Z" fill="#FDD8BE"/>
<path d="M121.346 238.099C99.8214 240.92 126.692 217.122 130.663 211.976C135.111 206.213 125.848 199.675 117.716 193.567C101.02 181.028 107.172 208.666 91.1503 201.347C67.7384 190.652 101.889 184.736 85.4475 177.599C76.5674 173.744 65.1719 166.258 61.6766 174.001C48.2285 203.79 44.0927 194.441 40.9385 190.529C33.7128 181.569 26.7077 185.456 23.6299 191.485C16.5137 205.426 27.0664 204.275 30.5174 205.043C50.581 209.51 25.1055 220.036 19.229 227.65C15.4164 232.589 27.8916 243.626 33.2781 245.867C42.4351 249.677 44.8167 223.076 58.9745 234.38C78.4465 249.843 43.9995 255.357 57.9409 262.473C69.9704 268.375 87.8688 278.946 91.7964 267.955C102.342 238.441 109.261 250.844 110.396 256.109C112.707 266.828 125.995 264.147 130.882 257.779C136.082 251.004 133.54 236.501 121.346 238.099Z" fill="#9FC51A"/>
</svg>
