<svg width="578" height="555" viewBox="0 0 578 555" fill="none" xmlns="http://www.w3.org/2000/svg">
<path d="M415.065 130.252L421.886 84.3092C421.886 84.3092 415.026 86.6382 410.894 88.1251C403.995 90.6078 400.297 92.5166 393.255 94.5589C387.909 96.1093 379.051 98.6619 379.051 98.6619L379.158 99.8666L391.456 101.601L391.965 102.769C391.965 102.769 392.083 107.105 392.575 109.596C393.372 113.623 394.888 115.39 395.079 119.491C395.264 123.473 393.603 130.146 393.603 130.146L398.199 131.759L415.065 130.252Z" fill="#BF5440"/>
<path d="M384.401 108.707C387.305 106.538 392.001 103.171 392.001 103.171C392.001 103.171 392.892 107.53 393.45 110.327C394.039 113.276 394.652 114.89 394.936 117.884C395.234 121.035 395.141 122.836 394.85 125.987C394.717 127.432 394.37 129.673 394.37 129.673C394.37 129.673 388.188 127.374 384.302 125.716C381.644 124.581 380.164 123.919 377.555 122.676C375.385 121.642 372.047 119.93 372.047 119.93L368.913 116.568C368.913 116.568 369.866 116.223 370.484 116.022C372.305 115.431 373.394 115.04 375.195 114.387C376.927 113.759 377.895 113.686 379.504 112.788C381.72 111.549 382.367 110.226 384.401 108.707Z" fill="#A7392A"/>
<path d="M415.184 172.336C444.508 143.081 465.895 132.131 500.177 108.882C503.151 106.865 507.813 103.747 507.813 103.747L505.26 102.356C505.26 102.356 501.061 99.8026 498.075 98.951C494.838 98.028 492.863 98.1895 489.499 98.0986C486.819 98.0262 485.308 98.0759 482.637 98.3073C478.703 98.6481 476.483 98.981 472.67 100.008C468.096 101.239 465.588 102.453 461.463 104.449L460.946 104.698C455.114 107.518 452.337 110.001 446.735 113.254L446.017 113.672C439.754 117.31 436.024 119.477 429.383 122.901C423.848 125.755 415.029 129.85 415.029 129.85L408.202 130.461L398.164 131.358C398.164 131.358 393.803 129.535 391.014 128.354C386.733 126.541 384.231 125.743 380.071 123.666C376.125 121.695 373.366 121.201 370.262 118.067C369.708 117.507 368.913 116.568 368.913 116.568C368.913 116.568 371.329 115.898 372.857 115.406C375.183 114.657 376.565 114.383 378.737 113.261C380.992 112.097 382.027 111.052 384.071 109.546C385.724 108.329 386.639 107.629 388.237 106.341C389.733 105.134 392.001 103.171 392.001 103.171L391.858 101.565C391.858 101.565 390.845 101.137 390.18 100.905C386.243 99.5339 379.56 99.8308 379.56 99.8308L379.452 98.6262C379.452 98.6262 386.273 97.246 390.552 96.0149C394.442 94.8959 396.552 94.0362 400.375 92.7083C408.854 89.7639 413.467 87.7232 421.922 84.7109C430.015 81.8274 434.51 80.0625 442.738 77.5884C447.795 76.0677 450.774 75.6949 455.773 73.9946C459.971 72.567 462.304 71.6739 466.328 69.8131C471 67.6526 473.588 66.3148 477.908 63.5161C480.99 61.5196 482.93 60.5949 485.508 57.9797C487.858 55.5958 488.706 53.842 490.555 51.0524C491.861 49.0841 492.844 48.0962 493.739 45.9107C494.437 44.2054 495.176 43.179 494.95 41.3501C494.851 40.5534 494.369 39.3783 494.369 39.3783C494.369 39.3783 486.458 41.8544 481.369 43.3736C471.546 46.3061 466.063 48.0687 456.101 50.4894C448.698 52.2883 444.437 53.1255 437.089 54.5694L436.64 54.6575C427.493 56.455 422.269 56.9519 413.128 58.783C399.243 61.5645 384.987 65.612 377.857 67.1977L359.601 71.2581L333.099 73.6271C333.099 73.6271 327.714 74.594 324.373 75.6214C322.037 76.3397 320.627 76.5736 318.493 77.766C316.89 78.6618 315.95 79.1964 314.693 80.5342C313.463 81.8422 312.962 82.7715 312.205 84.3994C310.318 88.4605 311.641 91.3657 311.202 95.8223C310.446 103.505 310.077 107.825 308.91 115.456C307.396 125.354 306.292 130.88 303.872 140.596L303.726 141.179C301.356 150.692 299.973 156.245 296.388 165.55C293.524 172.985 291.712 177.104 287.929 184.116C283.771 191.82 281.173 196.05 275.855 203.004C270.644 209.819 261.121 219.298 261.121 219.298L44.8779 372.22L42.113 554.691L271.012 316.365L312.87 272.957C312.87 272.957 331.477 252.202 345.22 240.923C353.735 233.933 359.788 231.633 368.021 224.313C376.268 216.981 379.773 211.723 387.214 203.574C398.256 191.483 403.591 183.901 415.184 172.336Z" fill="#DA7B5F"/>
<path d="M536.622 25.6497C519.335 38.7796 555.175 36.8056 561.617 37.6716C568.832 38.6416 566.843 49.8033 565.356 59.8645C562.302 80.5206 547.242 56.5441 540.997 73.014C531.872 97.0811 560.313 77.2735 553.642 93.9091C550.039 102.894 547.2 116.23 539.27 113.183C508.761 101.459 512.395 111.015 512.903 116.014C514.066 127.466 506.353 129.628 499.924 127.505C485.061 122.597 493.374 115.995 495.288 113.022C506.412 95.7379 480.897 106.168 471.365 104.887C465.18 104.055 466.29 87.4361 468.543 82.0549C472.375 72.9068 492.774 90.1458 494.891 72.1526C497.863 47.4662 469.494 67.7686 474.402 52.9056C478.805 40.2504 484.097 20.1478 494.619 25.2012C522.87 38.7697 519.067 25.0859 516.172 20.5449C510.278 11.2983 521.611 3.86032 529.564 4.95111C538.025 6.11163 546.416 18.2113 536.622 25.6497Z" fill="#FEE42D"/>
</svg>
