<svg width="596" height="579" viewBox="0 0 596 579" fill="none" xmlns="http://www.w3.org/2000/svg">
<path d="M29.1376 29.8746C49.101 38.4016 13.8585 45.2107 7.82099 47.6187C1.05886 50.3157 5.70481 60.6576 9.59635 70.0542C17.5859 89.3458 26.3572 62.4246 36.423 76.8791C51.132 98.0013 18.7248 85.7122 29.2445 100.224C34.9264 108.062 40.9255 120.305 47.8749 115.419C74.6128 96.6223 73.4142 106.775 74.1384 111.747C75.7974 123.138 83.8057 123.358 89.5239 119.734C102.745 111.356 93.0754 106.976 90.4958 104.558C75.499 90.5015 102.785 94.4072 111.719 90.8444C117.515 88.5329 112.394 72.6833 108.898 68.0125C102.955 60.0723 87.3656 81.758 80.9326 64.8212C72.0416 41.6006 104.499 54.3872 96.1207 41.1659C88.7698 29.9631 78.7441 11.7531 69.7687 19.2156C45.6694 39.2526 46.0271 25.0548 47.7297 19.9456C51.1964 9.54234 38.3932 5.08676 30.9452 8.08048C23.021 11.2656 17.8277 25.0438 29.1376 29.8746Z" fill="#ED3A61"/>
<path d="M179.429 148.432L173.296 102.392C173.296 102.392 180.12 104.824 184.229 106.372C191.091 108.958 194.759 110.922 201.77 113.069C207.092 114.699 215.912 117.384 215.912 117.384L215.786 118.587L203.464 120.137L202.937 121.298C202.937 121.298 202.755 125.632 202.225 128.114C201.368 132.129 199.825 133.873 199.573 137.971C199.329 141.949 200.89 148.647 200.89 148.647L196.27 150.191L179.429 148.432Z" fill="#EC8B56"/>
<path d="M210.412 127.349C207.541 125.136 202.895 121.699 202.895 121.699C202.895 121.699 201.939 126.045 201.339 128.833C200.706 131.773 200.069 133.377 199.741 136.367C199.396 139.513 199.461 141.315 199.705 144.47C199.817 145.918 200.13 148.163 200.13 148.163C200.13 148.163 206.346 145.957 210.256 144.357C212.931 143.262 214.421 142.623 217.048 141.418C219.233 140.417 222.596 138.755 222.596 138.755L225.78 135.44C225.78 135.44 224.832 135.081 224.218 134.871C222.405 134.253 221.323 133.846 219.532 133.166C217.809 132.512 216.842 132.425 215.247 131.502C213.05 130.231 212.423 128.898 210.412 127.349Z" fill="#DE7545"/>
<path d="M178.68 190.509C149.797 160.819 128.576 149.55 94.6457 125.791C91.702 123.73 87.0873 120.542 87.0873 120.542L89.6606 119.19C89.6606 119.19 93.8975 116.699 96.8961 115.892C100.146 115.018 102.119 115.209 105.484 115.168C108.165 115.136 109.675 115.208 112.342 115.48C116.271 115.879 118.486 116.245 122.283 117.329C126.837 118.629 129.327 119.88 133.422 121.937L133.935 122.195C139.724 125.101 142.464 127.625 148.016 130.962L148.728 131.39C154.936 135.122 158.633 137.344 165.222 140.867C170.714 143.804 179.471 148.031 179.471 148.031L186.287 148.743L196.311 149.79C196.311 149.79 200.699 148.033 203.505 146.894C207.813 145.145 210.327 144.385 214.517 142.37C218.492 140.458 221.259 140.005 224.409 136.918C224.972 136.367 225.78 135.44 225.78 135.44C225.78 135.44 223.375 134.734 221.854 134.219C219.539 133.435 218.162 133.14 216.007 131.986C213.769 130.788 212.75 129.728 210.729 128.192C209.094 126.951 208.19 126.237 206.611 124.925C205.134 123.696 202.895 121.699 202.895 121.699L203.063 120.095C203.063 120.095 204.082 119.682 204.75 119.461C208.707 118.148 215.385 118.545 215.385 118.545L215.51 117.342C215.51 117.342 208.712 115.86 204.451 114.565C200.578 113.388 198.482 112.497 194.678 111.112C186.244 108.041 181.662 105.932 173.254 102.793C165.204 99.7888 160.737 97.9569 152.547 95.36C147.513 93.7638 144.54 93.3465 139.566 91.5716C135.391 90.0814 133.071 89.1534 129.076 87.2326C124.436 85.0025 121.869 83.6261 117.591 80.7631C114.539 78.7207 112.613 77.7671 110.075 75.1136C107.761 72.6948 106.939 70.9286 105.131 68.1115C103.856 66.124 102.888 65.1215 102.025 62.9229C101.353 61.2073 100.629 60.1699 100.883 58.3447C100.993 57.5495 101.493 56.3817 101.493 56.3817C101.493 56.3817 109.366 58.9759 114.432 60.5711C124.21 63.6502 129.666 65.4947 139.591 68.0641C146.966 69.9736 151.214 70.8744 158.54 72.4281L158.987 72.5229C168.106 74.4571 173.322 75.032 182.434 76.9997C196.276 79.9886 210.471 84.2489 217.576 85.9411L235.769 90.2742L262.232 93.0394C262.232 93.0394 267.602 94.0868 270.928 95.164C273.253 95.9172 274.66 96.1721 276.775 97.3964C278.364 98.316 279.296 98.8646 280.533 100.221C281.743 101.547 282.231 102.484 282.963 104.123C284.789 108.212 283.423 111.097 283.795 115.56C284.436 123.252 284.741 127.578 285.793 135.225C287.159 145.145 288.18 150.687 290.455 160.438L290.591 161.023C292.819 170.57 294.119 176.144 297.564 185.502C300.317 192.978 302.067 197.124 305.745 204.192C309.786 211.957 312.321 216.225 317.534 223.259C322.643 230.151 332.023 239.77 332.023 239.77L545.954 395.911L545.989 578.403L320.681 336.679L279.477 292.649C279.477 292.649 261.183 271.619 247.61 260.135C239.2 253.019 233.183 250.628 225.06 243.186C216.924 235.731 213.498 230.421 206.179 222.162C195.319 209.907 190.098 202.246 178.68 190.509Z" fill="#FEAD78"/>
</svg>
